<svg width="23" height="13" viewBox="0 0 23 13" fill="none" xmlns="http://www.w3.org/2000/svg">
<path fill-rule="evenodd" clip-rule="evenodd" d="M22.4588 0.902134C22.6293 0.393237 22.4588 0.0231313 21.7036 0.0231313H19.1947C18.5614 0.0231313 18.2691 0.346975 18.0986 0.69395C18.0986 0.69395 16.8075 3.6548 15.005 5.57473C14.4204 6.12989 14.1524 6.31495 13.8358 6.31495C13.6653 6.31495 13.446 6.12989 13.446 5.621V0.879003C13.446 0.277579 13.2512 0 12.7153 0H8.76915C8.37941 0 8.13582 0.277579 8.13582 0.555159C8.13582 1.13345 9.0371 1.27224 9.13453 2.89146V6.40747C9.13453 7.17082 8.98838 7.30961 8.67172 7.30961C7.81916 7.30961 5.74866 4.32562 4.50637 0.925267C4.26278 0.254448 4.01919 0 3.38587 0H0.852556C0.121794 0 0 0.323842 0 0.670817C0 1.29537 0.852557 4.44128 3.97048 8.60498C6.04097 11.4502 8.98838 12.9769 11.6435 12.9769C13.2512 12.9769 13.446 12.6299 13.446 12.0516V9.90036C13.446 9.20641 13.5922 9.09075 14.1037 9.09075C14.4691 9.09075 15.1268 9.2758 16.6127 10.6406C18.3178 12.2598 18.6101 13 19.5601 13H22.069C22.7998 13 23.1408 12.653 22.9459 11.9822C22.7267 11.3114 21.8985 10.3399 20.8267 9.18327C20.2421 8.53559 19.3652 7.81851 19.0973 7.47153C18.7319 7.0089 18.8293 6.82384 19.0973 6.40747C19.0729 6.40747 22.1421 2.29003 22.4588 0.902134Z" fill="white"/>
</svg>
